<?xml version="1.0" standalone="no"?>
<!DOCTYPE svg PUBLIC "-//W3C//DTD SVG 20010904//EN"
 "http://www.w3.org/TR/2001/REC-SVG-20010904/DTD/svg10.dtd">
<svg version="1.0" xmlns="http://www.w3.org/2000/svg"
 width="700.000000pt" height="700.000000pt" viewBox="0 0 700.000000 700.000000"
 preserveAspectRatio="xMidYMid meet">
<metadata>
Created by potrace 1.11, written by Peter Selinger 2001-2013
</metadata>
<g transform="translate(0.000000,700.000000) scale(0.100000,-0.100000)"
fill="#000000" stroke="none">
<path d="M2478 6375 c-2 -1 -32 -5 -68 -8 -546 -47 -950 -405 -1035 -917 -14
-84 -14 -348 -1 -415 60 -287 168 -487 373 -688 150 -146 287 -248 573 -427
237 -147 351 -221 385 -247 17 -13 35 -27 40 -31 181 -132 281 -248 335 -387
20 -51 24 -78 24 -175 -1 -101 -4 -124 -28 -184 -43 -112 -108 -185 -210 -235
-155 -76 -411 -72 -560 8 -147 78 -240 248 -247 451 -1 28 -7 51 -13 51 -30 4
-753 5 -763 1 -15 -5 -7 -168 13 -277 2 -11 9 -47 15 -79 15 -82 64 -228 106
-311 114 -228 295 -405 526 -514 48 -22 92 -41 97 -41 6 0 18 -4 28 -9 84 -42
277 -73 482 -76 438 -8 761 106 1010 355 99 99 101 101 162 200 157 252 215
569 163 895 -31 197 -122 397 -258 572 -43 54 -180 192 -237 238 -142 115
-236 177 -576 382 -379 229 -493 316 -585 447 -101 144 -121 318 -52 463 51
109 168 191 300 212 180 28 355 -16 446 -113 83 -87 134 -224 136 -366 l1 -26
391 0 391 0 -5 101 c-15 254 -86 481 -209 666 -54 81 -195 222 -273 274 -129
85 -277 147 -435 180 -3 1 -27 4 -53 9 -27 4 -59 10 -70 12 -25 5 -314 13
-319 9z"/>
<path d="M4935 5030 c-2 -3 -3 -696 -4 -1540 0 -844 -2 -1548 -5 -1565 -2 -16
-7 -52 -11 -80 -4 -27 -18 -84 -32 -125 -83 -247 -257 -364 -526 -355 -221 7
-375 115 -456 321 -42 109 -61 260 -61 498 l0 58 -39 -59 c-120 -179 -398
-373 -648 -454 -50 -15 -73 -28 -73 -38 1 -34 40 -190 68 -271 41 -119 100
-232 169 -325 57 -76 180 -199 233 -234 14 -8 27 -18 30 -21 5 -5 27 -18 106
-61 102 -56 285 -116 409 -133 22 -3 51 -8 65 -11 14 -3 90 -7 170 -9 570 -13
987 201 1215 623 96 180 147 360 174 621 9 90 12 3159 2 3161 -21 4 -783 3
-786 -1z"/>
<path d="M3059 4880 c-3 -140 1 -285 8 -287 21 -7 248 -147 251 -155 2 -4 8
-8 14 -8 5 0 55 -35 111 -77 167 -127 310 -279 393 -418 7 -13 10 125 10 473
0 271 -2 492 -5 493 -4 0 -180 2 -394 2 l-387 2 -1 -25z"/>
</g>
</svg>
