<?xml version="1.0" encoding="UTF-8" standalone="no"?>
<svg
  xmlns:dc="http://purl.org/dc/elements/1.1/"
  xmlns:cc="http://creativecommons.org/ns#"
  xmlns:rdf="http://www.w3.org/1999/02/22-rdf-syntax-ns#"
  xmlns:svg="http://www.w3.org/2000/svg"
  xmlns="http://www.w3.org/2000/svg"
  viewBox="0 0 1440 1440"
  height="1440"
  width="1440"
  xml:space="preserve"
  id="svg2"
  version="1.1">
  <metadata id="metadata8">
    <rdf:RDF>
      <cc:Work rdf:about="">
        <dc:format>image/svg+xml</dc:format><dc:type rdf:resource="http://purl.org/dc/dcmitype/StillImage"/></cc:Work>
    </rdf:RDF>
  </metadata>
  <defs id="defs6">
    <clipPath id="clipPath18" clipPathUnits="userSpaceOnUse"><path id="path16" d="M 0,1080 H 1080 V 0 H 0 Z"/></clipPath>
  </defs>
  <g transform="matrix(1.3333333,0,0,-1.3333333,0,1440)" id="g10">
      <g clip-path="url(#clipPath18)" id="g14">
        <g transform="translate(442.2578,342.4873)" id="g20"><path
          id="path22"
          style="fill:#00ff75;fill-opacity:1;fill-rule:nonzero;stroke:none"
          d="m 0,0 h 35.714 c 0.285,-17.856 9.638,-26.077 24.66,-26.077 15.873,0 23.526,9.353 23.526,22.109 0,35.997 -79.931,38.831 -79.931,98.639 0,29.478 20.975,51.588 56.121,51.588 35.431,0 56.974,-21.825 57.257,-57.257 H 81.633 c -0.283,15.874 -8.22,23.527 -21.543,23.527 -13.038,0 -20.692,-7.371 -20.692,-18.708 0,-34.581 80.783,-35.714 80.783,-98.073 0,-31.178 -21.825,-55.839 -60.091,-55.839 C 23.526,-60.091 0.283,-38.265 0,0"/></g>
        <g transform="translate(609.438,427.4531)" id="g24"><path
          id="path26"
          style="fill:#00ff75;fill-opacity:1;fill-rule:nonzero;stroke:none"
          d="m 0,0 v -135.77 c 0,-21.259 -9.07,-32.03 -24.944,-32.03 -15.872,0 -24.942,10.771 -24.942,32.03 v 8.446 c -6.554,-12.976 -24.759,-22.13 -34.897,-24.822 4.993,-32.338 26.887,-49.383 59.839,-49.383 37.983,0 61.225,24.092 61.225,65.759 l 0,135.77 z"/></g>
        <g transform="translate(559.8018,376.167)" id="g28"><path id="path30" style="fill:#00ff75;fill-opacity:1;fill-rule:nonzero;stroke:none" d="M 0,0 V 45.252 H -35.998 V 31.3 C -23.585,24.552 -6.636,13.395 0,0"/></g>
        </g>
  </g>
</svg>
