<?xml version="1.0" encoding="UTF-8" standalone="no"?>
<!DOCTYPE svg PUBLIC "-//W3C//DTD SVG 1.1//EN" "http://www.w3.org/Graphics/SVG/1.1/DTD/svg11.dtd">
<svg version="1.1" xmlns="http://www.w3.org/2000/svg" xmlns:xlink="http://www.w3.org/1999/xlink" preserveAspectRatio="xMidYMid meet" viewBox="0 0 640 640" width="640" height="640">
  <defs>
    <path
      d="M116.36 349.72C159.25 349.72 183.08 349.72 187.85 349.72C188.42 385.47 207.14 401.92 237.21 401.92C268.99 401.92 284.31 383.2 284.31 357.67C284.31 285.61 124.3 279.93 124.3 160.21C124.3 101.2 166.29 56.95 236.65 56.95C307.57 56.95 350.69 100.63 351.26 171.56C344.11 171.56 286.92 171.56 279.77 171.56C279.2 139.78 263.31 124.47 236.65 124.47C210.55 124.47 195.22 139.22 195.22 161.91C195.22 231.14 356.93 233.41 356.93 358.23C356.93 420.64 313.24 470.01 236.65 470.01C163.45 470.01 116.93 426.32 116.36 349.72"
      id="d1CUWwRabh"></path>
    <path
      d="M451.01 179.64C451.01 342.71 451.01 433.3 451.01 451.42C451.01 493.98 432.86 515.54 401.08 515.54C369.31 515.54 351.15 493.98 351.15 451.42C351.15 449.73 351.15 436.2 351.15 434.51C338.04 460.49 301.59 478.81 281.3 484.2C291.29 548.93 335.12 583.05 401.08 583.05C477.12 583.05 523.64 534.83 523.64 451.42C523.64 433.3 523.64 342.71 523.64 179.64L451.01 179.64Z"
      id="d1fV9kOLuP"></path>
    <path d="M351.65 282.3L351.65 191.72L279.6 191.72C279.6 208.48 279.6 217.79 279.6 219.65C304.44 233.16 338.37 255.49 351.65 282.3" id="a2YNbA4r2l"></path>
  </defs>
  <g>
    <g>
      <g>
        <use xlink:href="#d1CUWwRabh" opacity="1" fill="#28a745" fill-opacity="1"></use>
        <g>
          <use xlink:href="#d1CUWwRabh" opacity="1" fill-opacity="0" stroke="#000000" stroke-width="1" stroke-opacity="0"></use>
        </g>
      </g>
      <g>
        <use xlink:href="#d1fV9kOLuP" opacity="1" fill="#28a745" fill-opacity="1"></use>
        <g>
          <use xlink:href="#d1fV9kOLuP" opacity="1" fill-opacity="0" stroke="#000000" stroke-width="1" stroke-opacity="0"></use>
        </g>
      </g>
      <g>
        <use xlink:href="#a2YNbA4r2l" opacity="1" fill="#28a745" fill-opacity="1"></use>
        <g>
          <use xlink:href="#a2YNbA4r2l" opacity="1" fill-opacity="0" stroke="#000000" stroke-width="1" stroke-opacity="0"></use>
        </g>
      </g>
    </g>
  </g>
</svg>
